<svg xmlns="http://www.w3.org/2000/svg" xmlns:xlink="http://www.w3.org/1999/xlink" contentStyleType="text/css" height="343px" preserveAspectRatio="none" style="width:383px;height:343px;background:#FFFFFF;" version="1.1" viewBox="0 0 383 343" width="383px" zoomAndPan="magnify"><defs/><g><!--cluster linux--><g id="cluster_linux"><polygon fill="none" points="16,16,26,6,299,6,299,165.29,289,175.29,16,175.29,16,16" style="stroke:#181818;stroke-width:1;"/><line style="stroke:#181818;stroke-width:1;" x1="289" x2="299" y1="16" y2="6"/><line style="stroke:#181818;stroke-width:1;" x1="16" x2="289" y1="16" y2="16"/><line style="stroke:#181818;stroke-width:1;" x1="289" x2="289" y1="16" y2="175.29"/><text fill="#000000" font-family="sans-serif" font-size="14" font-weight="bold" lengthAdjust="spacing" textLength="156.0918" x="75.4541" y="31.9951">Linux (vexpress-a9)</text></g><!--cluster echo-chamber--><g id="cluster_echo-chamber"><rect fill="none" height="97.29" rx="2.5" ry="2.5" style="stroke:#181818;stroke-width:1;" width="127" x="40" y="54"/><polygon fill="none" points="150,59,150,73,162,73,162,65,156,59,150,59" style="stroke:#181818;stroke-width:1;"/><line style="stroke:#181818;stroke-width:1;" x1="156" x2="156" y1="59" y2="65"/><line style="stroke:#181818;stroke-width:1;" x1="162" x2="156" y1="65" y2="65"/><text fill="#000000" font-family="sans-serif" font-size="14" font-weight="bold" lengthAdjust="spacing" textLength="111.9111" x="47.5444" y="68.9951">echo-chamber</text></g><!--cluster freertos--><g id="cluster_freertos"><polygon fill="none" points="106,234.29,116,224.29,366,224.29,366,316.59,356,326.59,106,326.59,106,234.29" style="stroke:#181818;stroke-width:1;"/><line style="stroke:#181818;stroke-width:1;" x1="356" x2="366" y1="234.29" y2="224.29"/><line style="stroke:#181818;stroke-width:1;" x1="106" x2="356" y1="234.29" y2="234.29"/><line style="stroke:#181818;stroke-width:1;" x1="356" x2="356" y1="234.29" y2="326.59"/><text fill="#000000" font-family="sans-serif" font-size="14" font-weight="bold" lengthAdjust="spacing" textLength="184.5771" x="139.7114" y="250.2851">FreeRTOS (versatilepb)</text></g><!--entity microcom--><g id="elem_microcom"><rect fill="#F1F1F1" height="39.2969" rx="2.5" ry="2.5" style="stroke:#181818;stroke-width:0.5;" width="99.4463" x="183.28" y="92.5"/><polygon fill="#F1F1F1" points="265.7263,97.5,265.7263,111.5,277.7263,111.5,277.7263,103.5,271.7263,97.5,265.7263,97.5" style="stroke:#181818;stroke-width:0.5;"/><line style="stroke:#181818;stroke-width:0.5;" x1="271.7263" x2="271.7263" y1="97.5" y2="103.5"/><line style="stroke:#181818;stroke-width:0.5;" x1="277.7263" x2="271.7263" y1="103.5" y2="103.5"/><text fill="#000000" font-family="sans-serif" font-size="14" lengthAdjust="spacing" textLength="69.4463" x="193.28" y="118.4951">microcom</text></g><!--entity l1--><g id="elem_l1"><rect fill="#F1F1F1" height="46.2969" rx="2.5" ry="2.5" style="stroke:#181818;stroke-width:0.5;" width="90.415" x="56.79" y="89"/><rect fill="#F1F1F1" height="10" style="stroke:#181818;stroke-width:0.5;" width="15" x="127.205" y="94"/><rect fill="#F1F1F1" height="2" style="stroke:#181818;stroke-width:0.5;" width="4" x="125.205" y="96"/><rect fill="#F1F1F1" height="2" style="stroke:#181818;stroke-width:0.5;" width="4" x="125.205" y="100"/><text fill="#000000" font-family="sans-serif" font-size="14" lengthAdjust="spacing" textLength="50.415" x="71.79" y="121.9951">libecho</text></g><!--entity l2--><g id="elem_l2"><rect fill="#F1F1F1" height="46.2969" rx="2.5" ry="2.5" style="stroke:#181818;stroke-width:0.5;" width="90.415" x="187.79" y="264.29"/><rect fill="#F1F1F1" height="10" style="stroke:#181818;stroke-width:0.5;" width="15" x="258.205" y="269.29"/><rect fill="#F1F1F1" height="2" style="stroke:#181818;stroke-width:0.5;" width="4" x="256.205" y="271.29"/><rect fill="#F1F1F1" height="2" style="stroke:#181818;stroke-width:0.5;" width="4" x="256.205" y="275.29"/><text fill="#000000" font-family="sans-serif" font-size="14" lengthAdjust="spacing" textLength="50.415" x="202.79" y="297.2851">libecho</text></g><!--link microcom to l2--><g id="link_microcom_l2"><path d="M233,132.02 C233,164.22 233,229.6 233,264.05 " fill="none" id="microcom-l2" style="stroke:#181818;stroke-width:1;"/><text fill="#000000" font-family="sans-serif" font-size="13" lengthAdjust="spacing" textLength="55.1611" x="234" y="204.3569">ttyAMA1</text></g><!--SRC=[TOsx2i8m58RtFiMXamuPwgPR5oT5K5yWYQSqq5muEKf5-kwUHCH9_ktxRo7U4Dg32_SPLW-S4s7EIc_NBUWCK-MlHXExGLi6j6DKTjJU80ctqQSOCB0aJV5ggMkMNyCxIr5omaBzsXFY-Ngwb3lAcjs4oNpk1h68O_wxl15d4JNVLL2gq1qmF_jZtxq1]--></g></svg>